/* XPM */
static char *_06c36e4080b4610e143d40a06c0687188krMOmeaMRmn1zm[] = {
/* columns rows colors chars-per-pixel */
"32 32 5 1 ",
"  c None",
". c #72683E",
"X c #DFB500",
"o c #F8D634",
"O c #FFF83A",
/* pixels */
"                                ",
"                                ",
"                                ",
"                                ",
"                                ",
"                                ",
"                                ",
"             ......             ",
"            .OO.OOO.            ",
"           .oo.OoooO.           ",
"          .OO.OOOOooO.          ",
"          .oo.OOOOooO.          ",
"          .OO.OOOOooO.          ",
"         .oo.OoOOOOooO.         ",
"         .OO.OoOOOOooO.         ",
"         .OO.ooOOOOooo.         ",
"         .oo.ooXOOOooo.         ",
"         .OO.oooOOXooo.         ",
"         .oo.ooOOOoooo.         ",
"          .XX.XOOOXoo.          ",
"          .oo.XOOOOoX.          ",
"          .XX.XXXXXoX.          ",
"           .oo.Xoooo.           ",
"            .XX.XXX.            ",
"             ......             ",
"                                ",
"                                ",
"                                ",
"                                ",
"                                ",
"                                ",
"                                "
};
