/* XPM */
static char *_4c16d056944454884f14082de2d3da6CVgA6kWys0KMkcvG[] = {
/* columns rows colors chars-per-pixel */
"50 50 165 2 ",
"   c None",
".  c #798489",
"X  c #7A8689",
"o  c #7B8789",
"O  c #7B878A",
"+  c #7C8789",
"@  c #7C878A",
"#  c #7C888A",
"$  c #7D888A",
"%  c #7D898A",
"&  c #7D898B",
"*  c #7E898A",
"=  c #7E898B",
"-  c #7E8A8B",
";  c #7F8A8B",
":  c #808A8B",
">  c #858F8D",
",  c #89928E",
"<  c #88938F",
"1  c #89938F",
"2  c #89948F",
"3  c #8A948F",
"4  c #8A9490",
"5  c #8B9590",
"6  c #8C9590",
"7  c #8C9691",
"8  c #8D9691",
"9  c #8D9791",
"0  c #8D9890",
"q  c #8F9891",
"w  c #8F9991",
"e  c #909992",
"r  c #909A92",
"t  c #919A92",
"y  c #929C92",
"u  c #969F94",
"i  c #979F94",
"p  c #97A094",
"a  c #98A195",
"s  c #9CA496",
"d  c #A0A898",
"f  c #A2AA99",
"g  c #A2AB99",
"h  c #A3AB99",
"j  c #A4AB99",
"k  c #A5AC9A",
"l  c #A6AE9A",
"z  c #A7AE9A",
"x  c #A8AF9B",
"c  c #A8B09B",
"v  c #A9B09B",
"b  c #A9B19B",
"n  c #AAB19C",
"m  c #ACB39D",
"M  c #ADB49E",
"N  c #B1B89F",
"B  c #B4BA9F",
"V  c #B3BAA0",
"C  c #B4BAA0",
"Z  c #B4BBA0",
"A  c #B5BBA0",
"S  c #B6BBA0",
"D  c #B6BCA1",
"F  c #B7BDA1",
"G  c #B8BEA1",
"H  c #B9BEA1",
"J  c #B9BFA1",
"K  c #B8BDA2",
"L  c #B9BFA2",
"P  c #BABFA2",
"I  c #BAC0A2",
"U  c #BBC0A2",
"Y  c #BBC0A3",
"T  c #BBC1A3",
"R  c #BCC1A3",
"E  c #BCC2A3",
"W  c #BEC4A4",
"Q  c #BFC4A4",
"!  c #BEC5A4",
"~  c #BFC5A4",
"^  c #BFC5A5",
"/  c #C0C5A4",
"(  c #C0C5A5",
")  c #C0C6A5",
"_  c #C1C6A5",
"`  c #C2C7A5",
"'  c #C3C7A5",
"]  c #C2C7A6",
"[  c #C3C7A6",
"{  c #C3C8A5",
"}  c #C3C8A6",
"|  c #C4C8A6",
" . c #C4C9A6",
".. c #C5C9A6",
"X. c #C5CAA6",
"o. c #C6CAA6",
"O. c #C6CBA6",
"+. c #C6CAA7",
"@. c #C7CAA7",
"#. c #C6CBA7",
"$. c #C7CBA7",
"%. c #C7CBA8",
"&. c #C8CCA8",
"*. c #C9CDA8",
"=. c #C9CEA8",
"-. c #CACEA8",
";. c #CBCFA8",
":. c #CACEA9",
">. c #CCD0A9",
",. c #CDD1A9",
"<. c #CDD1AA",
"1. c #CED2AA",
"2. c #CFD2AA",
"3. c #CFD3AA",
"4. c #CED3AB",
"5. c #D0D2AA",
"6. c #D0D3AB",
"7. c #D0D4AB",
"8. c #D1D4AB",
"9. c #D0D5AB",
"0. c #D2D4AB",
"q. c #D2D5AC",
"w. c #D3D6AC",
"e. c #D3D7AC",
"r. c #D4D6AC",
"t. c #D4D7AC",
"y. c #D5D7AC",
"u. c #D6D8AD",
"i. c #D7D9AD",
"p. c #DADCAE",
"a. c #DCDDAF",
"s. c #DCDEAF",
"d. c #DCDEB0",
"f. c #DCDFB0",
"g. c #DEE0B0",
"h. c #DFE0B0",
"j. c #DFE1B0",
"k. c #DFE0B1",
"l. c #E0E2B1",
"z. c #E1E3B1",
"x. c #E2E3B1",
"c. c #E3E4B2",
"v. c #E4E5B2",
"b. c #E4E5B3",
"n. c #E5E5B3",
"m. c #E4E6B3",
"M. c #E6E6B3",
"N. c #E6E7B3",
"B. c #E7E7B3",
"V. c #E7E8B4",
"C. c #E8E8B4",
"Z. c #E8E9B4",
"A. c #EBEBB5",
"S. c #EDECB6",
"D. c #EEEEB6",
"F. c #F3F2B8",
"G. c #F4F3B8",
"H. c #F4F3B9",
"J. c #F5F3B9",
"K. c #F5F4B9",
"L. c #F6F4B9",
"P. c #F6F5B9",
"I. c #F5F4BA",
"U. c #F6F4BA",
"Y. c #F8F7BA",
/* pixels */
"                                                                                                    ",
"                                                                                                    ",
"                                                                                                    ",
"                                                                                                    ",
"                                                                                                    ",
"                                                                  F.F.F.G.Y.a.                      ",
"                                                                F.F.I.I.l.>.$.b                     ",
"                                                                F.I.g.>. .] ] z X                   ",
"                                                                G.I.t.~ ] R 0.a.$.p.Y.C.]           ",
"                                                                G.j.$./ ] t.a.m.D.t.t.6.] ]         ",
"                                                                I.0.~ / / >.>.$.6.R R / ~ ]         ",
"                                                                I.0./ ] ] R / ] / ] / ] ~ ] {       ",
"                                                              G.m.$.] / ] / ] / /  . .] { R f       ",
"                                                              G.>.R ] ] / ] ] { J f f j f s @       ",
"                                                            G.I.6.] ] ]  .B z z i + ; @ ; @         ",
"                                                          G.m.l.$.] { B b y o @ ; ; ; ; ; ;         ",
"                                                        G.m.$./ ~ ] Z w X ; ; ; ; ; ; ; ;           ",
"                                                      G.m.$.] ] ] D t @ ; ;                         ",
"                                                    B.m. ./ / ] D w ; ; ;                           ",
"                                                  B. .] ] ]  .B 4 ; ; ;                             ",
"                                                m.] ] ] ] ] J 3 ; ;                                 ",
"                                              C. .] ~ ~ / J 3 : ;                                   ",
"                                            C.] ] / ] ] I 3 : :                                     ",
"                                          V.] ] / ] ] I 3 ; ;                                       ",
"                                        m.] ] ] ] / I 4 ; ;                                         ",
"                                      B. .] ~ ~ ] R , ; ;                                           ",
"                                    m...] ] ] ] I , : ;                                             ",
"                                  m. ./ ] / ] I , : ;                                               ",
"                                m. .] ] ] ] J , ; ;                                                 ",
"                              x.$.] ] / { I 4 ; ;                                                   ",
"                            x.$./ ] / ..I 4 ; ;                                                     ",
"                        G.I.a./ / ] ] S 4 ; ;                                                       ",
"                    G.G.I.m.=.] ] ] Z 7 ; ;                                                         ",
"            G.G.I.G.I.l.0.$.~ ] ] { B X ;                                                           ",
"        G.G.Y.a.r.0.r.$.R ~ ] ] { D w ;                                                             ",
"        G.I.a. .~ ] ] ] ] ] / ] D t @                                                               ",
"      I.I.l. ./ ] / ] / / ] / B t ;                                                                 ",
"      a.p. .] / R ] / ] ] /  .b X ;                                                                 ",
"    l. ./ ] ] / 0.=.] / ] ]  .b @ ;                                                                 ",
"    j R ..] m $.D.u.R ] ~ ] J i ;                                                                   ",
"    ; f z b > 0.A.>.~ ] ~  .z X ;                                                                   ",
"      @ ; ; @ r.0./ ] ] ] J p ; ;                                                                   ",
"        ; ; X 6.0.~ ] ] I p @ ; ;                                                                   ",
"              M I { { I i @ ; ;                                                                     ",
"              X f B Z i ; ; ;                                                                       ",
"                ; ; ; ; ; ;                                                                         ",
"                  ; ; ; ;                                                                           ",
"                                                                                                    ",
"                                                                                                    ",
"                                                                                                    "
};
