/* XPM */
static char *b7e8a3b55d1f4652ad8ac80da84c7db9HwsLWIAzQJlcpUeH[] = {
/* columns rows colors chars-per-pixel */
"50 50 213 2 ",
"   c #0B0A06",
".  c #0D0D0B",
"X  c #060503",
"o  c #100E0A",
"O  c #100C07",
"+  c #14120D",
"@  c #1A150E",
"#  c #1B190F",
"$  c #151411",
"%  c #1B1611",
"&  c #1D1913",
"*  c #181A1A",
"=  c #241A0C",
"-  c #221C13",
";  c #251E16",
":  c #1F221A",
">  c #262115",
",  c #2B2215",
"<  c #25231C",
"1  c #2A251C",
"2  c #2D291E",
"3  c #252D1F",
"4  c #352B1C",
"5  c #392E1D",
"6  c #362817",
"7  c #3B301E",
"8  c #2D2B22",
"9  c #282725",
"0  c #332D22",
"q  c #392F21",
"w  c #2B3226",
"e  c #333025",
"r  c #3C3223",
"t  c #3D3529",
"y  c #3D392A",
"u  c #33392A",
"i  c #2E3233",
"p  c #343533",
"a  c #3B3D34",
"s  c #452B0B",
"d  c #432F15",
"f  c #42331D",
"g  c #4B361C",
"h  c #553A19",
"j  c #4E300D",
"k  c #423522",
"l  c #443926",
"z  c #433B2B",
"x  c #4A3E2B",
"c  c #473824",
"v  c #413E32",
"b  c #523B21",
"n  c #3C4236",
"m  c #38422F",
"M  c #5A411D",
"N  c #61421C",
"B  c #4B412E",
"V  c #42402E",
"C  c #5B4223",
"Z  c #5D4A2E",
"A  c #56452C",
"S  c #4C4332",
"D  c #4C4C3C",
"F  c #454839",
"G  c #5B4B33",
"H  c #554A38",
"J  c #5B4D39",
"K  c #524734",
"L  c #58523A",
"P  c #644C2C",
"I  c #6B4D2A",
"U  c #664924",
"Y  c #6D512C",
"T  c #72542E",
"R  c #75582E",
"E  c #624E32",
"W  c #655134",
"Q  c #6C5535",
"!  c #63543C",
"~  c #6D5A3C",
"^  c #6B5739",
"/  c #725531",
"(  c #745935",
")  c #7A5C35",
"_  c #735C3C",
"`  c #7B5E3A",
"'  c #7D623C",
"]  c #79613B",
"[  c #3A3F41",
"{  c #3E4243",
"}  c #4B4C4B",
"|  c #464844",
" . c #575746",
".. c #545857",
"X. c #4A514D",
"o. c #665A43",
"O. c #6C5C42",
"+. c #645A44",
"@. c #725E43",
"#. c #6D624A",
"$. c #746143",
"%. c #7C6544",
"&. c #75644A",
"*. c #7A6549",
"=. c #7D6A4C",
"-. c #78684B",
";. c #676A5B",
":. c #7D6C52",
">. c #776A54",
",. c #5B5E60",
"<. c #5C6363",
"1. c #646969",
"2. c #6C7267",
"3. c #6C7372",
"4. c #737777",
"5. c #73746F",
"6. c #805F39",
"7. c #82653D",
"8. c #84693D",
"9. c #836641",
"0. c #856A44",
"q. c #8A6D45",
"w. c #836C4C",
"e. c #8A6E49",
"r. c #8D724B",
"t. c #88704B",
"y. c #91754D",
"u. c #92764C",
"i. c #816E51",
"p. c #847153",
"a. c #8B7453",
"s. c #8E7A55",
"d. c #85745A",
"f. c #8A7559",
"g. c #8D7A5B",
"h. c #85795F",
"j. c #947A54",
"k. c #997E55",
"l. c #937D5B",
"z. c #987F5A",
"x. c #927652",
"c. c #8C7C61",
"v. c #857C67",
"b. c #927E61",
"n. c #77817E",
"m. c #96815E",
"M. c #9B835C",
"N. c #88826D",
"B. c #968162",
"V. c #9A8563",
"C. c #9C8966",
"Z. c #94846A",
"A. c #9A866A",
"S. c #9D8A6B",
"D. c #958C6F",
"F. c #998B72",
"G. c #9B927E",
"H. c #A48C65",
"J. c #A28D6C",
"K. c #A18661",
"L. c #A6916D",
"P. c #A18F71",
"I. c #A59273",
"U. c #A99575",
"Y. c #AC9A7B",
"T. c #A99779",
"R. c #797F80",
"E. c #7D8686",
"W. c #818583",
"Q. c #858A88",
"!. c #8C928E",
"~. c #9C9683",
"^. c #959997",
"/. c #8F9193",
"(. c #AE9D81",
"). c #A39B89",
"_. c #AB9F89",
"`. c #ABA188",
"'. c #B3A489",
"]. c #AAA697",
"[. c #B4AE9C",
"{. c #9EA3A4",
"}. c #A6AAA9",
"|. c #B7B4A7",
" X c #B2B6B2",
".X c #B7BAB7",
"XX c #B2AFA2",
"oX c #C0BFB7",
"OX c #BEC1BA",
"+X c #C6C6BA",
"@X c #C8CAC5",
"#X c #D5D6CD",
"$X c #D6D9D3",
"%X c #DCDEDA",
"&X c #D8D9D4",
"*X c #CFD0CC",
"=X c #DFE1DC",
"-X c #E2E3DE",
";X c #E5E6E3",
":X c #E7E8E4",
">X c #E9EAE6",
",X c #ECECEA",
"<X c #EDEEE9",
"1X c #EEEEEC",
"2X c #EBECE9",
"3X c #EEF0EB",
"4X c #F1F3EE",
"5X c #F3F8EF",
"6X c #F4F6F1",
"7X c #F5F9F4",
"8X c #F9FAF6",
"9X c #FDFEFD",
"0X c #F7F9F9",
/* pixels */
">X;X-X;X2X;X1X1X,X;X;X;X;X;X;X;X;X,X;X,X2X;X2X>X2X,X2X2X>X>X;X>X>X>X;X>X;X>X;X;X;X;X;X;X;X;X;X;X;X;X",
";X-X;X2X;X;X2X2X;X,X;X,X;X;X;X;X;X;X;X;X2X;X>X2X%X&X1X2X;X;X;X;X;X>X;X;X;X;X;X;X;X;X;X;X;X;X;X;X;X;X",
">X;X>X>X>X;X;X2X;X;X,X;X;X;X;X;X,X;X,X,X;X>X,X@X/.E.@X;X,X,X,X;X;X2X2X;X2X;X;X;X;X;X;X;X;X;X>X;X:X>X",
">X1X2X>X>X>X>X2X%X%X,X;X,X,X,X;X,X%X%X,X0X-X XE.i 9 R.}.=X1X;X>X2X2X>X2X>X2X>X;X;X2X>X;X;X;X;X-X-X;X",
",X,X,X,X;X;X,X;X;X,X;X;X,X>X>X;X;X;X,X,X.X/.,.*     * ,.^.@X,X,X>X2X;X2X2X-X-X-X;X;X>X;X;X;X;X;X:X-X",
",X,X,X,X,X>X;X;X;X,X,X,X,X,X,X,X;X6X=XQ.1.[ $ = q z q % [ Q..X;X1X2X2X>X;X;X-X=X;X>X>X>X;X;X>X;X:X:X",
",X,X,X,X,X1X,X;X;X,X1X>X;X,X,X,X0X.X3.,.i - H ! E @.@.x % 9 1.{.&X1X:X:X2X2X2X2X;X>X>X;X,X;X>X>X:X:X",
",X,X%X>X,X;X1X1X1X,X,X;X>X,X1X>X/.1.X.9 q @.i.W E w.w.d.*.t * } E.OX<X2X2X2X2X2X>X;X>X;X>X,X>X;X:X:X",
",X,X;X;X;X;X,X;X1X,X,X;X2X1X&XW.<.[ < G :.g.i.$._ / b.g.9.@.b ; p 1.}.-X6X2X2X2X>X;X>X;X-X>X>X>X>X:X",
",X,X,X;X,X,X2X2X1X1X,X,X6X*X/.,.p l O.=.c.f.p._ / e.b.0.@.x.w.O.x t ..^.$X6X2X2X2X>X>X;X:X>X>X:X>X>X",
";X,X,X,X2X,X,X,X2X,X1X,X.XR...z +.p.i.b.p.a.%.` w.K.g.0.b.f.w.i.=.E c } R..X;X1X2X:X>X>X2X>X2X2X2X:X",
";X,X,X,X2X,X,X2X2X6X-X{.1.| x O.&.=.Z.l.a.b.l.w.J.l.` l.l.x.9._ *.*.W c a ,.^.%X6X:X2X>X>X>X:X2X:X3X",
"1X,X,X,X,X,X2X6X6XOXW...x o.^ O.p.b.B.g.j.l.l.j.J.w.' C.0.6.l.t.*._ ^ b d q ..W.@X6X2X2X2X2X>X:X3X:X",
",X,X,X,X,X,X0X&XW.1.} | o.@.@.w.A.p.a.B.f.m.S.V.S.0.r.C.` T 9.` I / Q U b s 6 } 4..X3X1X>X>X;X>X:X3X",
",X;X1X,X1X0X X<...H H @.W @.@.f.S.t.B.l.l.l.S.V.V.e.q.V.f.9.` Q ( %.w.( P g f k F <.{.:X4X>X>X>X3X:X",
",X,X,X6X,X/.,... .*.*.o.C W 6.f.F.p.m.l.V.C.H.B.J.P.M.y.a.x.e.r.y.0.e.a.9.P b Z c y ..!.#X7X2X2X>X<X",
"1X1X0X*X5.1.| z  .H z y r r z H H x ! G ! ! J J o.-.p.9.] ` / %.' 9.q.( Y U I 0._ P 7 } 3. X6X<X>X>X",
",X0X}.....p < y S +.>.:.p.f.d.-.:.O.! ! A L ! L B B z l 7 5 5 5 r r e 5 4 4 6 5 6 6 ; = n <.^.>X4X:X",
"-XW.} ,.i q :.d.F.P.F.C.a.C.m.m.V.a.a.M.u.M.H.M.l.H.S.a.w.w.$.~ W W ^ Q G C G g f k 6 , @ | 1.R.&X8X",
"Q.{ ..{ i v i.&.b.P.V.m.B.B.C.U.J.a.t.C.m.r.l.M.C.l.M.j.j.H.H.H.M.j.M.j.q.q.r.r.] 7.7.M 6 i } ,.2.OX",
"-X3.{ [ $ z i.=.Z.P.B.A.B.m.I.J.I.l.l.l.s.t.l.j.M.K.H.H.M.Y.L.H.H.H.M.u.q.y.q.8.7.7.t.Y d i { ....Q.",
"0X&X[ . . K *.*.b.A.b.z.l.s.C.C.V.C.C.m.p.0.l.t.q.M.H.M.M.M.M.M.M.M.C.r.' q.q.8.8.q.q.Q h o p p W.3X",
"1X9X X* 9 A Q _ w.C.J.l.p.s.B.V.M.s.B.C.t./ w.0.' q.M.u.8.M.M.8.r.u.k.y.y.7.q.q.' u.r.I C < X 3.5X3X",
"1X;X9X}.* Z $.i.B.B.B.A.m.m.C.s.l.P.C.s.l.l.x.0.V.M.M.L.K.M.K.M.M.M.r.r.q.7.e.q.q.x.8.( P < 3.6X3X>X",
"4X1X1X9XQ.g p.B.F.V.l.C.L.C.C.m.B.I.S.w.%.m.H.M.H.K.M.H.L.j.u.j.k.x.e.j.u.0.y.j.q.8.u.' M 5.7X3X3X>X",
"1X4X1X8X#Xg $.=.p.:.p.b.g.p.f.V.J.J.m.] _ $.x 7 l l l z %.M.M.M.j.y.u.u.8.r.k.y.( t.u.] h [.0X>X3X3X",
"6X6X1X8XOX4 S S l t y y t e y l S +.~ c 2 +             + r / t.g.a.] ' t.w.( ) ( ' ) / s ).8X3X3X2X",
"6X1X1X9X.XO.Z.F.Z.b.g.c.-.p.c.#.! K & +   o + + + + + + o   + 2 y y 4 t r 6 4 6 5 7 7 5 @ ].8X>X3X3X",
"3X3X>X9X[.%.Y.Y.I.P.P.L.C.L.Y.S.L.-.X       O + # : & $ @ & @ X x w.*.] @.9.( ( Q ` w.~ M G.8X3X3X3X",
"3X3X2X9X[.a.(.(.T.I.U.U.C.J.U.m.V.#.n D n F u u u u w @ + + + X c k.q.q.y.y.9.8.q.8.q.' U D.8X2X2X3X",
"6X5X3X8X].B._.'.Y.I.`.I.M.L.U.B.j.y $ < < 9 : & $ $ + + + $ @ . < e.y.9.0.q.` 8.e.y.7.( M f.7X3X3X3X",
"6X6X6X0X'.F.(.'.(.S.Y.Y.C.C.I.J.S.> + $ @ # $ & # # $ & $ & & + % ` r.6.9.y.0.y.q.y.q./ M :.4X3X:X3X",
"3X6X3X8X).F.`.'.'.'.Y.U.U.U.I.m.p.# @ # = & & & % % % % & & & % $ G r.9.q.j.q.r.) / / ( T $.2X3X3X<X",
"3X6X5X7XZ.g.J.P.Y.U.I.Y.U.U.I.j.G   # & - & - ; - % - % & & + %   k x.q.0.y.q.r.r./ / Y ) Q ;X6X4X4X",
"3X6X6X3XZ.g.F.I.Y.J.I.V.J.C.V.M.l # > = - - - ; < 1 ; - 2 e v v u z x.x.r.7.8.q.0.q.0.) / P &X7X>X3X",
"6X3X3X>Xd.f.S.(.(.T.J.l.H.C.V.a.n n F ,.2.2.;.;. .F m 9 w m | p u w =.y.q.8.r.u.7.( r.7.U C #X3X-X>X",
"5X4X3X:XN. .A &.v.:.&.:.#.~ d.!   # # > < < < 1 ; & & & - & - % % $ @.M.y.q.q.u.q.' q.u.I j OX5X3X4X",
"4X5X8X-X#.J B S S l k 5 4 4 l 2 # # = - > > , 2 1 1 0 1 1 1 1 ; 9 & G B._ ( ~ Q P W P W 7 l #X7X3X3X",
"6X5X8X#X~ m.B.p.*.*.@.E *.l.p.7 # > > > > > > 8 8 2 2 2 1 2 8 9 1 < 0 S l f k k c f f 6 = 7 +X8X4X4X",
"6X4X9X@X^ C.h.c.f.w.Q Q a.S.z.k # > > , 2 2 0 u 0 2 2 1 < ; ; ; < - - *.w.' ' ) ' R I N N 6 `.9X:X4X",
"6X6X9X+X@.f.b.b.Z.f._ ( w.g.b.c > , , 4 2 5 4 4 r t r z z D  .D v v z e.r.8.7.7.) R ) Y T h ~.9X:X<X",
"6X6X9X|.@.f.b.J.b.i.@.Q 9.b.l.J F L  .L L  .L H D F D  . ... .} } | a @.6.R T T T 8.0.Y U j v.9X<X4X",
"6X4X9X].( b.b.(.A.f.i.*.a.l.j.q # , 2 2 w e e e 8 2 1 , ; < 1 = @ = - ` 7.6.7.) / 0.0./ I N c.0X4X4X",
"6X4X9X).W A.b.U.(.c.i.=.g.B.l.f = , , 6 4 4 r t r 7 5 q t y e 4 < 0 1 ` y.q.q.7.) 7.0.T T M d.0X4X4X",
"6X4X9X).w.b.J.I.P.A.g.a.A.L.l.5 , 6 5 5 7 r t l y r r l y r y 0 4 t 9 ^ 6.6.6.6.6.6.R ) / N %.7X<X5X",
"6X4X9XT.b.P.b.(.P.l.a.e.b.Y.g.5 6 5 r r l l z v B z l V B S S t t z 8 @.k.8.r.7.` y.r.q.7.I w.5X4X4X",
"6X3X0X_.A.P.L.I.I.U.C.b.H.I.i., 6 7 7 k k k l B B B x l c c K B B B r ^ y.q.r.7.7.r.r.q.8.R ` <X5X5X",
"6X6X6Xv.f.i.f.i.@.i.p.*.w.i.@.+.! ! ! o.o.#.&.>.v.N.N.D.~.].+X+X+X+X@XD.q.r.q.q.q.r.q.7.' ) / ;X7X4X",
"6X6X6X].~.].].|.|.|.|.XXXX.X=X7X4X4X4X4X5X5X7X8X9X9X9X9X9X9X8X9X9X9X9X[.T ' ) T W ( / Y P U N =X5X4X",
"6X6X7X9X9X9X9X9X9X9X9X9X9X9X9X4X7X7X8X8X5X8X8X5X7X8X6X4X6X6X4X6X6X4X4X%XG.v.Z.G.~.).`.~.G.N.N.-X5X4X"
};
