/* XPM */
static char *ce28f0cec3014ad7e5a63944dceaf3ac6J7LU1mdkrwhAblX[] = {
/* columns rows colors chars-per-pixel */
"50 50 35 1 ",
"  c #008000",
". c #008A00",
"X c #008D00",
"o c #009B00",
"O c #008E00",
"+ c #008B00",
"@ c #009400",
"# c #009000",
"$ c #008800",
"% c #009200",
"& c #009600",
"* c #008900",
"= c #009300",
"- c #008600",
"; c #008C00",
": c #009900",
"> c #009100",
", c #008700",
"< c #009A00",
"1 c #008F00",
"2 c #009500",
"3 c #009700",
"4 c #008400",
"5 c #008500",
"6 c #009800",
"7 c #008200",
"8 c #008300",
"9 c #007E00",
"0 c #009E00",
"q c #009D00",
"w c #009F00",
"e c #007F00",
"r c #008100",
"t c #009C00",
"y c white",
/* pixels */
" .XooO+@#$%&O%$$*%=&=-;%@X%OO:O=@->>,*OO#OOX#<>1*+",
"X+.%@;=X2@%O1O*1%-#3&;*$=>>#>*$.-4$**3<1.O4#5O#*+O",
">;3OO>O=#1.;;.X.;>=%X>%O1.+=>X*X63.#@>62=O:* %<;;1",
"%;O.;*1#3=73X$X$#3#*@3+@X;O$>11:#OO,X.8#:#31%;;>-5",
"=X.3+5X;X>#O%.X;2;;%@;.O$95;;#@@.@%*#%1>.#&=2#:6$#",
"0+$+=@;1.:>#>X+$2%;+1.<&>.>.1OX>+-*$O;O=%@%@2.+@,,",
"1+3$7>X2:1$3>###6#=*2O8,O1=1%2>OX;+O*+;O3&+;6#$X=$",
",21OO$;>>>1%O>#;O>1*#X+O$.$O@#3@+X;#@2-X+#=#4;.-..",
".@.5O#$O1>#21#*O22%+;;=3q*X@+2>$=X.2;++XO1,1#%=@*,",
"O>%#%;*2=>=*.=*,O66#1;%X1%&$$@..X%O*O;$@&6X*;;*=@#",
"X@%;=*5X%1%OO>1O##%*@X#28,1OX>1=X+##X#X;3w=11*13.1",
">#*5>;$X>OX,%O%%%1X5X;;X>#5%@#X2.;3>,>=>;#O;>@o3#%",
".+;.5%2**X@;#,X>%;>1;*=X%-X#;=.1X>>*,+;+O;@@+1@O+5",
"+4+X1>&3%..,*+O@>+1$$#@O:X*#X,&>O@@#1O1X;3#X+;X7*O",
",e$+,%O,.#1+X%$-##+>*=X+22.54O1@>;*O#OO1>+X>=>#O@;",
"1>.@15.*-+X1>@X$2O>+.#XO@4O5>$-#O*;@>O##%O1+,O*O#X",
">%$1X5-*11O#;+,;6O1X1#1+;$.;61O@O=..,#O=O.XOX=$;=$",
"2X%.;@O+%>;;,X$&3#&=&;-#X=@62X#;*;&X+=O.OXXX,12=>3",
";11$5+1#>%4$*#;+##>+%*5>4$r2#@#2O+>3O$O;XOO*$@@XX2",
"6>.#.*1X1O>1;;@#1*O32>#@1<;#&>6O;1;==%;==>>XX=@+2=",
"1O+#%==1=2X1*O:#&&.#o=#>@6;+-*6=+=:.+>X;>;X>2;+XXt",
"+&#;O=5X%*OO;4*;.2>;3>#O%2.1=O#;O6;8*1$,*=*#>;OXXX",
"X$=1$#;=&5:#1O5-4.1%>O@>Xw>*#$-*&>51&,rX1=,-1.$@#X",
"X#+O1X=*.=;$X@+*>4.O%1XO%@@OOOO2@=01>>><%6:3+*4X>+",
"%%.$:;-O+#%,+$@X,#>:X.%#222<&.%@%2.X+>X+<%o#$3+r;3",
";%XX:O>=*1>*X11#;%1>o1=*X-.X6:#;=1,>=X>--.%%2%$+%&",
"#%##*$+-8$*$3:O.O8#-11$;++;*%2;%X@2%##1.O%-13&;.$%",
"*+@>;*X3&*>=%:2%1:$r%<+X11;&1X%1%>1;+;.X+;#==O>%OO",
"XO$%116#1O-O*4>:16O%;X15,%;1.;*1>&@r&1,X$16>*%6;2X",
"e5;;#2@+@%*#>O#.>&%2#:3$#>O*&;4O;O##O%*O;2X+%@O*O$",
"*#*1XO>.,.$1X1@#@=2@*X@5*0;$;=@;1*6%1>X.$@%;+1.:3>",
"#=O%@>XX++X$.XO6&.;:1$1=-O+&$r>X2:#$3%1#16>=*@14,1",
".*1@#3=+X;#@2-O+>=#5;*-+*,@>1X$;>%>1%O>>;O>#*#X*X$",
",X=;2>*=+.2X+.XO1$1O%%@$,.@+4O#,XO%>21>.X@@%.;;%&q",
">&$$@*+O%X.X+*223+*X;.@=%1#%#>X*@@>=*.=*,O36#O+>O>",
"*#XX>O%;;1#1#;;:w=OO*13.#X@=X=*4;%1=1X>1X1#=*@O#@-",
";-=@1O&.;6>,%=#X>XX%=o3#%##*5>;$X>O;,%1%%=1O5X;;OO",
"-X1X@*#;%#$-+++O;2@+#21;-.;;.5>2**X2;#,X>%X#1X*%;%",
"..>;,3#O@211O1;X3#X.;;7*1.4+XO>&3%..,*+O@>+#*$1@16",
"=.-4#>2>;*O#OO1>XX>=>1O=O*9$;,%O*+1#.;%*-1>.>$=O+@",
"8O4#,->O$;=>O##%O#+$O*1#+O#*=#-+$-+;1>@X,@1>;.#XX&",
"**X:O1@1%*+$#O=O.X;X%$;@,#@$1O5-*OOO#X;,+6O1;O#1+O",
"=262X#;$X&+.=X;OXOX,#@@%@@X>.;=O+>>;X$;,23#2@&X-#+",
",72#=12O+%3X$O+XOX,$2=;X&1X1$5+1#%=4$$#;+##>+%+4=r",
"<+>&%6XXOX=@>;==>>XX=@+2%3>.#+*1X1X#1;+=#O.X&2#1@O",
"<++5.6=.=3.;>XX>;X>@X+XOt%O+#%%=1=&O1*X:>2&.#<=#==",
"@.#%1>;1:X8*#$,.%*>>+O;X;*3#XO@-;%*XOX4*;+2%;6%#O>",
"w#*#,-*&#4#&-7X#=--1.*@O#O$=#$#+%65:>1X4,8.1>>O=%.",
"2@XXOO2==qO>#>:#36&+$41>++1+O1X=..>X*X@;*#-.O=1O1>",
"=2q3+%2=@+X;%XXt&o1+3.r;2=@.*6X,X*=25.$@+$*13X;11%"
};
