/* XPM */
static char *_4f31b9508744c28dfcf007870f09a6e1eQZNXydg7axFpi3[] = {
/* columns rows colors chars-per-pixel */
"50 50 170 2 ",
"   c None",
".  c #663D17",
"X  c #653E19",
"o  c #683F1B",
"O  c #6B421C",
"+  c #6E4622",
"@  c #6C4826",
"#  c #6F4C2B",
"$  c #704622",
"%  c #754C25",
"&  c #754D2B",
"*  c #794E2B",
"=  c #7C532D",
"-  c #745233",
";  c #7A5635",
":  c #795739",
">  c #7C5B3D",
",  c #7E5F41",
"<  c #81572F",
"1  c #835333",
"2  c #845A33",
"3  c #825D3B",
"4  c #8B5E3C",
"5  c #A74131",
"6  c #A04836",
"7  c #BE453B",
"8  c #8B6037",
"9  c #87613D",
"0  c #8D633B",
"q  c #90663C",
"w  c #936A3F",
"e  c #9F5744",
"r  c #A35241",
"t  c #B15749",
"y  c #826143",
"u  c #846549",
"i  c #886548",
"p  c #87694C",
"a  c #8C6B4D",
"s  c #956C42",
"d  c #986E44",
"f  c #936E4A",
"g  c #9B7146",
"h  c #96704A",
"j  c #9D744A",
"k  c #8A6E53",
"l  c #8E735A",
"z  c #917153",
"x  c #9F7953",
"c  c #97795E",
"v  c #9D7C5C",
"b  c #90755B",
"n  c #A1764A",
"m  c #A47A4E",
"M  c #A87C4F",
"N  c #AC6051",
"B  c #A57C52",
"V  c #A97E52",
"C  c #947B63",
"Z  c #9B7E63",
"A  c #9E7461",
"S  c #C24C44",
"D  c #D14945",
"F  c #E34D4E",
"G  c #E64E50",
"H  c #E94F52",
"J  c #AB8255",
"K  c #AD845A",
"L  c #B08457",
"P  c #B1875B",
"I  c #B48A5D",
"U  c #9B826B",
"Y  c #9F8770",
"T  c #A18366",
"R  c #A78A6E",
"E  c #A3876C",
"W  c #B48C61",
"Q  c #B98F61",
"!  c #BC9265",
"~  c #B9936B",
"^  c #A38B75",
"/  c #A48E7A",
"(  c #AC8474",
")  c #A6917D",
"_  c #AB927C",
"`  c #B89571",
"'  c #B19475",
"]  c #C09567",
"[  c #C19769",
"{  c #C3996B",
"}  c #C49D72",
"|  c #C6A076",
" . c #C8A176",
".. c #C7A27A",
"X. c #CAA47B",
"o. c #A59280",
"O. c #AA9685",
"+. c #AE9A87",
"@. c #AD9B8A",
"#. c #B39D87",
"$. c #B29E8B",
"%. c #BCA287",
"&. c #B3A394",
"*. c #BAA593",
"=. c #BEAA97",
"-. c #B7AA9E",
";. c #BCAB9C",
":. c #BAADA2",
">. c #BDB1A6",
",. c #BEB3A8",
"<. c #CCA780",
"1. c #CEAB84",
"2. c #CFAD88",
"3. c #D0AE89",
"4. c #C4AF9C",
"5. c #CFB394",
"6. c #CBB399",
"7. c #D4B593",
"8. c #D7B99A",
"9. c #C2B3A4",
"0. c #C8B4A0",
"q. c #C6B9AD",
"w. c #CBBCAD",
"e. c #C3B6AE",
"r. c #D8BFA4",
"t. c #C3BAB2",
"y. c #CCBEB0",
"u. c #DEC7AE",
"i. c #CDC1B4",
"p. c #CAC3BC",
"a. c #D1C6BC",
"s. c #D3C8BE",
"d. c #DAC8B5",
"f. c #E1CCB6",
"g. c #CDC7C1",
"h. c #CEC9C3",
"j. c #D4CBC4",
"k. c #D9CFC5",
"l. c #D3CECA",
"z. c #DCD1C5",
"x. c #D5D1CE",
"c. c #DCD4CC",
"v. c #D9D7D5",
"b. c #DAD8D7",
"n. c #DEDDDC",
"m. c #E7D5C3",
"M. c #E6DBCF",
"N. c #EBDCCC",
"B. c #E2DBD4",
"V. c #E8DFD5",
"C. c #E2DED9",
"Z. c #E7E1DC",
"A. c #EEE1D3",
"S. c #F0E5D8",
"D. c #E5E6E6",
"F. c #E3E4E3",
"G. c #E6E7E8",
"H. c #E7E8E9",
"J. c #E7E9EA",
"K. c #E8E9EB",
"L. c #E8EAEB",
"P. c #E8EBED",
"I. c #EBE6E1",
"U. c #F5EEE6",
"Y. c #F9F4EE",
"T. c #F6F4F2",
"R. c #F8F6F5",
"E. c #FBF8F6",
"W. c white",
"Q. c #FEFEFE",
/* pixels */
"                                                                      O * = , > #                   ",
"                                                              O 4 s 2 J Q ! 6.x.p.>.z               ",
"                                                            O n { ! d { { { | z.P.Z.`               ",
"                                                            g { { [ d ! { { ! 5.H.v.} 0             ",
"                                                          2 ! { { [ d ! Q h f ~ C.z.K <             ",
"                                                          J { { { [ g Q B h.B.T s.i.E U             ",
"                                                        0 { { { { { d K $.Q.T.9.9.,.j.q.            ",
"                                                        B { { { { { j B y.Q.$.@.9.,.z.U ;           ",
"                                                      = ! { { { { { j m w.Q.t.;.>.>.c.:.y - o : -   ",
"                                                      s { { { { { { j K v 9.9./ h.p.^ / >.y & *._ X ",
"                                                      B { { { { { { j ! 0.&.&.h.G.G.l.x.G.o.@ ; ; O ",
"                                                    * I { { { { { { j w.J.J.P.J.G.G.K.G.G.n.Z + $ X ",
"                                                    2 ! { { { { { [ v v.G.G.G.G.G.G.G.G.G.K.n.C , l ",
"                                                    0 { { { { { { [ v b.G.G.G.G.G.G.G.G.G.G.J.g.&.&.",
"                                                    s { { { { { { [ c n.G.D.G.G.G.G.G.G.G.G.K.h.-.@.",
"                                                    j { { { { { { ! v n.K.j.j.L.L.L.G.G.K.J.P.h.O.k ",
"                                                    B { { { { { { I T F.G.l.C @.,.h.x.x.x.l.t.o.-   ",
"                                                  O J { { { { { { I T D.G.F.A 5 6 3 C l : - #       ",
"                                              = j d m { { { { { { J / K.J.j.t G H N v.:.            ",
"                                          2 m ! { J g ! { { { { { n $.L.J.e.S H D Z F.o.            ",
"                                        s ! { { { J w I [ { { { ! w #.K.G.g.r 7 r l.h.              ",
"                                      j { { { { { L q M K I ! Q K q I d.D.G.t.O.p.l.l               ",
"                                    s { { { { { { ! 8 M M M M M V 2 0 n ' ;.q.>.o.,                 ",
"                                  8 ! { { { { { { ] q n M M M M n 0 W =.#./ ) l                     ",
"                                j P ! { { ! ! { { { B 8 M M M M d g  .U.Q.Q.Q.y.                    ",
"                            O m ! m ! { { [ J W { { [ q 8 n m g 2 W  .U.Q.Q.Q.i.                    ",
"                          * m { J B { { { { Q m { { { ! d < < < B {  .U.Q.Q.Q.i.                    ",
"                        2 P { { j ! { { { { { j Q { { { { ! ! ] { { X.Y.Q.Q.Q.9.                    ",
"                    % g ! { { B w { { { { { { J K { { { { { { { { { 2.E.Q.Q.Q.)                     ",
"        % = % % 2 j ! { { { Q = g { { { { { { P V { { { { { { { { { 8.Q.Q.Q.I.u                     ",
"        9 ~ I I ! { { { <.u.T   j { { { { { { P J { { { { { { [ [ P f.Q.Q.Q.*.X                     ",
"          ' 7.} ..8.<.u.S.w.    s { { { { { { J K { { { { { { L [ K V.Q.Q.c.3 $                     ",
"            i.A.m.Y.Y.E.v.k     * P { { { { { m I { { { { { ] x { W c.Q.B.a 1 *                     ",
"            a s.Q.Q.Q.k.z     z J m ! { { { P j { { { [ { { X.K ! I w.p.y * 4 *                     ",
"                Y &.^ :     U 6.{ I ! { { P 0 I  .X.1.7.u.N.Y.4.! ! y +   * 2 $                     ",
"                          3 z.3.{ { { W g = * 9 R *.i.s.k.s.0.U P J < 2 ; % 1 = = +                 ",
"                        Z -.%.{ { K j U c 2 *                   J P ] { ! x C z 2 2 $               ",
"                        9.Q.d.{ I h j.Q.y.1                     j { { [  .z.Q.c.y 4 Z Y u           ",
"                        j.Q.U.| 0 y Z.Q._ o                     % I X.X.u.Q.R.@.i 4.T.Q.k.          ",
"                        a.Q.B.B o U Y.c.                          a 0.Z.z.Q.R.Z 4.c.Q.T.9.;         ",
"                        ^ E.&.O   b ;.l                               C O.E.a.> k a.Q.B.y           ",
"                        +.c.                                              $.u     &.c./             ",
"                        y p                                                                         ",
"                                                                                                    ",
"                                                                                                    ",
"                                                                                                    ",
"                                                                                                    ",
"                                                                                                    ",
"                                                                                                    ",
"                                                                                                    "
};
