/* XPM */
static char *result[] = {
/* columns rows colors chars-per-pixel */
"50 50 177 2 ",
"   c #643B0F",
".  c #663B11",
"X  c #6D431B",
"o  c #71451C",
"O  c #73491E",
"+  c #6C4622",
"@  c #6D4823",
"#  c #724721",
"$  c #754C23",
"%  c #7B4E23",
"&  c #7B4E28",
"*  c #744F2C",
"=  c #7D5226",
"-  c #7D522A",
";  c #74502C",
":  c #755231",
">  c #7D5633",
",  c #7C5B3A",
"<  c #81552B",
"1  c #845A2E",
"2  c #835632",
"3  c #875C30",
"4  c #8A5D35",
"5  c #845D3B",
"6  c #8C5F3A",
"7  c #90543C",
"8  c #B04A3A",
"9  c #BC473C",
"0  c #8C6134",
"q  c #8C633A",
"w  c #906537",
"e  c #91663A",
"r  c #956A3D",
"t  c #995C45",
"y  c #AC5F4E",
"u  c #A35D4A",
"i  c #836344",
"p  c #8F6340",
"a  c #856649",
"s  c #876B4E",
"d  c #8A6B4D",
"f  c #8A654A",
"g  c #966D42",
"h  c #996E42",
"j  c #936D4B",
"k  c #93644D",
"l  c #9C7244",
"z  c #9E754A",
"x  c #9F784D",
"c  c #95724C",
"v  c #8D6E53",
"b  c #8F7155",
"n  c #8F735C",
"m  c #91745A",
"M  c #9B7A5C",
"N  c #9B7555",
"B  c #A07546",
"V  c #A0774A",
"C  c #A47A4D",
"Z  c #A97D4E",
"A  c #A47D52",
"S  c #A97F51",
"D  c #957B63",
"F  c #997E63",
"G  c #A17B67",
"H  c #AE7F70",
"J  c #C14C41",
"K  c #DB4946",
"L  c #D44642",
"P  c #E04B4A",
"I  c #E94E50",
"U  c #AD8355",
"Y  c #A4815E",
"T  c #AF8658",
"R  c #B28657",
"E  c #B0875A",
"W  c #B48A5C",
"Q  c #B88D5E",
"!  c #9C8166",
"~  c #9B826B",
"^  c #A58267",
"/  c #A88764",
"(  c #A3886D",
")  c #A2866B",
"_  c #B78D60",
"`  c #B98F61",
"'  c #BD9364",
"]  c #A38B75",
"[  c #A98F77",
"{  c #A18D7A",
"}  c #A6907C",
"|  c #A9937E",
" . c #B99773",
".. c #B59A7E",
"X. c #BA9D7F",
"o. c #C09667",
"O. c #C19768",
"+. c #C49A6B",
"@. c #C89D6E",
"#. c #C69E72",
"$. c #C9A176",
"%. c #CAA57C",
"&. c #A59280",
"*. c #AC9784",
"=. c #AD9885",
"-. c #AD9B8B",
";. c #B59C86",
":. c #B19C8A",
">. c #BFA68D",
",. c #B5A393",
"<. c #BBA795",
"1. c #B5A79A",
"2. c #BCAC9D",
"3. c #BBAFA3",
"4. c #BEB3A9",
"5. c #BCB0A4",
"6. c #CDAA84",
"7. c #CFB08E",
"8. c #D0B08E",
"9. c #C0AE9E",
"0. c #CEB396",
"q. c #D4B797",
"w. c #D0B79D",
"e. c #C5B3A4",
"r. c #CEB8A1",
"t. c #C3B6AB",
"y. c #C7B9AD",
"u. c #CAB9AA",
"i. c #D4BDA4",
"p. c #C6BCB4",
"a. c #CCBFB3",
"s. c #DDC5AA",
"d. c #CEC2B6",
"f. c #CBC4BD",
"g. c #D6C5B2",
"h. c #D9C5B0",
"j. c #DAC9B7",
"k. c #D2C6BB",
"l. c #D4C9BF",
"z. c #DCCCBB",
"x. c #E2D1BF",
"c. c #CDC7C1",
"v. c #CFC9C3",
"b. c #D7CCC2",
"n. c #D9CEC2",
"m. c #D3CFCA",
"M. c #D9D0C6",
"N. c #D6D3CF",
"B. c #DCD3CB",
"V. c #D9D6D3",
"C. c #DCD9D5",
"Z. c #DEDDDC",
"A. c #E7D6C4",
"S. c #E7D8C7",
"D. c #E9D9C6",
"F. c #E0D6CD",
"G. c #E3D8CD",
"H. c #E2DBD4",
"J. c #E4DFDB",
"K. c #EEE3D6",
"L. c #E0E0DF",
"P. c #E9E2DB",
"I. c #F1E8DE",
"U. c #E4E5E4",
"Y. c #EBE6E2",
"T. c #EDE9E5",
"R. c #E6E7E8",
"E. c #E7E8E9",
"W. c #E9EAEB",
"Q. c #F4EDE4",
"!. c #F1EEEC",
"~. c #F5F1EE",
"^. c #F7F5F3",
"/. c #FAF7F4",
"(. c #FAF8F6",
"). c #FFFFFF",
"_. c None",
/* pixels */
"_._._._._._._._._._._._._._._._._._._._._._._._._._._._._._._._._._._._._._._._._._._._._._._._._._.",
"_._._._._._._._._._._._._._._._._._._._._._._._._._._._._._._._._._._._._._._._._._._._._._._._._._.",
"_._._._._._._._._._.m { -.-.^ g 0 O   _._._._._._._._._._._._._._._._._._._._._._._._._._._._._._._.",
"_._._._._._._._._.q g.W.W.j.#.+.O.U e C 1 _._._._._._._._._._._._._._._._._._._._._._._._._._._._._.",
"_._._._._._._._._.Z i.W.H.%.+.+.+.U U +.' 0 _._._._._._._._._._._._._._._._._._._._._._._._._._._._.",
"_._._._._._._._._.C q.E.g.W S ' +.C T +.+.Q = _._._._._._._._._._._._._._._._._._._._._._._._._._._.",
"_._._._._._._._.* F X.R.X.F *.x O.V W +.O.+.C _._._._._._._._._._._._._._._._._._._._._._._._._._._.",
"_._._._._._._._.] P.:.C.[ T.).9.E x Q O.+.+.O.3 _._._._._._._._._._._._._._._._._._._._._._._._._._.",
"_._._._._._._._.v k.2.c.,.e.(.J.Y l ' +.+.+.+.C _._._._._._._._._._._._._._._._._._._._._._._._._._.",
"_._._.+ i X X : ~ H.2.f.,.F !.!.Y g ' +.+.+.+.' = _._._._._._._._._._._._._._._._._._._._._._._._._.",
"_._._.v y.i + ,.} ,.-.V.*.v.^.n.U l ' +.+.+.+.O.e _._._._._._._._._._._._._._._._._._._._._._._._._.",
"_._._.$ > o a V.m.3.V.E.4.] ] F W l ' +.+.+.+.+.S _._._._._._._._._._._._._._._._._._._._._._._._._.",
"_._._.X o a v.W.W.W.E.E.W.L.V.Z.w.h ' +.+.+.+.+.Q $ _._._._._._._._._._._._._._._._._._._._._._._._.",
"_._.n n a m.W.E.E.E.E.E.E.E.E.W.Z.Y ' +.+.+.+.+.' 1 _._._._._._._._._._._._._._._._._._._._._._._._.",
"_._.{ 4.5.W.W.E.E.E.E.E.E.E.E.E.U.( ' +.+.+.+.+.+.r _._._._._._._._._._._._._._._._._._._._._._._._.",
"_._.! 4.t.W.W.E.E.E.E.E.E.E.E.E.U.) ' +.+.O.+.+.+.l _._._._._._._._._._._._._._._._._._._._._._._._.",
"_._., &.4.W.E.E.E.E.E.E.W.U.V.E.R.~ ' +.+.+.+.O.+.V _._._._._._._._._._._._._._._._._._._._._._._._.",
"_._._.+ ~ c.V.Z.U.L.U.U.V.1.t.W.E.( Q +.+.+.+.+.+.U _._._._._._._._._._._._._._._._._._._._._._._._.",
"_._._._._.@ , a n D v k 7 f V.W.E.] W +.+.+.+.+.+.U _._._._._._._._._._._._._._._._._._._._._._._._.",
"_._._._._._._._.-.c.u L K y V.W.W.| R +.+.+.+.+.+.T _._._._._._._._._._._._._._._._._._._._._._._._.",
"_._._._._._._._.&.R.H K I J p.W.W.-.C +.+.+.+.+.+.U X _._._._._._._._._._._._._._._._._._._._._._._.",
"_._._._._._._._.a N.4.8 K 9 t.W.W.,.B O.+.+.+.+.O.l 1 = _._._._._._._._._._._._._._._._._._._._._._.",
"_._._._._._._._._.{ L.-.t G C.W.E...r ' +.+.+.+.Q r U ' C = _._._._._._._._._._._._._._._._._._._._.",
"_._._._._._._._._._.~ p.N.Z.U.F.0.U w U Q Q Q R U e E +.+.' l o _._._._._._._._._._._._._._._._._._.",
"_._._._._._._._._._._.@ s ! M c g q 3 U Z Z Z Z Z 0 Q +.+.+.+.U % _._._._._._._._._._._._._._._._._.",
"_._._._._._._._._._._._.=.H.M.C.G.+.w B Z Z Z Z B e O.+.+.+.+.+.S o _._._._._._._._._._._._._._._._.",
"_._._._._._._._._._._._.d.).).).Q.$.B r Z Z U Z 0 C @.+.+.+.+.+.+.h . _._._._._._._._._._._._._._._.",
"_._._._._._._._._._._._.B.).).).K.#.Q 0 r B l 0 e O.+.+.+.+.' +.+.' q _._._._._._._._._._._._._._._.",
"_._._._._._._._._._._._.H.).).).K.#.O.U 1 1 1 l ' +.+.+.' C W +.+.+.' 0 _._._._._._._._._._._._._._.",
"_._._._._._._._._._._._.B.).).).K.+.O.+.O.' ' +.+.+.+.+.l T +.+.+.O.' T _._._._._._._._._._._._._._.",
"_._._._._._._._._._._._.d.).).).I.$.+.+.+.+.+.+.+.+.+.T V +.+.+.+.O.S ' g _._._._._._._._._._._._._.",
"_._._._._._._._._._._._.,.).).).Q.%.O.+.+.+.+.+.+.+.+.V Q +.+.+.+.+.C W ' < _._._._._._._._._._._._.",
"_._._._._._._._._._._._.b !.).).^.6.O.` R +.+.+.+.+.o.V O.+.+.+.+.+.T T @.U X _._._._._._._._._._._.",
"_._._._._._._._._._._._._.e.).).).q.Q +.z Q +.+.+.+.' C +.+.+.+.+.+.W g +.+.r _._._._._._._._._._._.",
"_._._._._._._._._._._._._., H.).).A.T O.W C +.+.+.+.' C +.+.+.+.+.+.W = o.+.' 0 _._._._._._._._._._.",
"_._._._._._._._._._.{ m & & b P.).).>.' +.C ` +.+.+.' z O.+.+.+.+.+.T X ;.%.+.' 3 _._._._._._._._._.",
"_._._._._._._._._.! ~.!.;.6 < f b.J.-.e C S A +.+.+.+.V _ +.+.+.+.+.l _.=.S.$.+.' 0 _._._._._._._._.",
"_._._._._._._._._., d.).!.M 6 < - c U E T U x %.$.+.+.W V +.+.+.+.` 1 _._.H.D.%.o.' l o _._._._._._.",
"_._._._._._._._._._.t.).~.u.e.k q ' +.+.+.O.A n.S.h.0. .4 U O.+.O.e _._._.<.(.A.s.6.+.W l 4 . _._._.",
"_._._._._._._._._._.] !.H.<.,.u.Y.P.8.+.#.E # a v a 5 > 5 p W ' ' E 3 _._._.M.).(.s.%.6.6.c _._._._.",
"_._._._._._._._._._._.&.| _.f H.).).l.z.w.c _._._._.< 4 ^ M < V O.@.l _._._.b B.).).~.n.! _._._._._.",
"_._._._._._._._._._._._._._.@ ! T.).l.:.d _._._._._.2 6 <.| _.C +.#./ _._._._.5 *.2.=.i _._._._._._.",
"_._._._._._._._._._._._._._._.; e.~.2._._._._._._._.2 p k.] % ' +.8.] _._._._._._._._._._._._._._._.",
"_._._._._._._._._._._._._._._._._.v i _._._._._._.* j N B.v q ' $.z._._._._._._._._._._._._._._._._.",
"_._._._._._._._._._._._._._._._._._._._._._._._.m k.T.<.e.; ;.A.i.n._._._._._._._._._._._._._._._._.",
"_._._._._._._._._._._._._._._._._._._._._._._._.l.).).n.> ,.(.).k.} _._._._._._._._._._._._._._._._.",
"_._._._._._._._._._._._._._._._._._._._._._._.v n.!.).J.v Y.).).B.: _._._._._._._._._._._._._._._._.",
"_._._._._._._._._._._._._._._._._._._._._._._._.a ,.B.<., -.b.(.d._._._._._._._._._._._._._._._._._.",
"_._._._._._._._._._._._._._._._._._._._._._._._._._._._._.@ v F _._._._._._._._._._._._._._._._._._.",
"_._._._._._._._._._._._._._._._._._._._._._._._._._._._._._._._._._._._._._._._._._._._._._._._._._."
};
