/* XPM */
static char *_a0e664c95a54454b5decf68d58c84deIDIRVjop28SSIeMp[] = {
/* columns rows colors chars-per-pixel */
"50 50 174 2 ",
"   c None",
".  c #653D17",
"X  c #663E19",
"o  c #6C441F",
"O  c #6D4722",
"+  c #6D4927",
"@  c #6E4A29",
"#  c #714723",
"$  c #734A24",
"%  c #754D2B",
"&  c #794F2B",
"*  c #73502F",
"=  c #7D542D",
"-  c #755333",
";  c #7E5735",
":  c #7A5739",
">  c #7C5A3C",
",  c #7E5D40",
"<  c #81572F",
"1  c #825532",
"2  c #855B33",
"3  c #885F36",
"4  c #865E3B",
"5  c #8A5D3B",
"6  c #8F553E",
"7  c #AF4B3D",
"8  c #BB493E",
"9  c #8A6037",
"0  c #8E643B",
"q  c #91673D",
"w  c #92693F",
"e  c #845F40",
"r  c #985C47",
"t  c #AB5F4F",
"y  c #A25D4B",
"u  c #816245",
"i  c #8A6341",
"p  c #84654A",
"a  c #866A4F",
"s  c #8C6A4C",
"d  c #89654B",
"f  c #966C42",
"g  c #986F45",
"h  c #926D4B",
"j  c #92644E",
"k  c #9B7146",
"l  c #96724D",
"z  c #9E754A",
"x  c #8C6E53",
"c  c #8D7156",
"v  c #8E735A",
"b  c #9B7553",
"n  c #94785F",
"m  c #9C7D5E",
"M  c #997759",
"N  c #A2774B",
"B  c #A3794E",
"V  c #A87C4F",
"C  c #A57C51",
"Z  c #A87E53",
"A  c #907760",
"S  c #967D65",
"D  c #997D63",
"F  c #967F69",
"G  c #A07A67",
"H  c #AD7E6F",
"J  c #C04D43",
"K  c #DB4B49",
"L  c #D34844",
"P  c #E84F51",
"I  c #AC8256",
"U  c #A4815D",
"Y  c #AE8459",
"T  c #B18558",
"R  c #B48A5D",
"E  c #B88D5F",
"W  c #9A826B",
"Q  c #9D8064",
"!  c #9F8A76",
"~  c #A58366",
"^  c #A1866C",
"/  c #A1886F",
"(  c #B78D60",
")  c #B98F61",
"_  c #BC9265",
"`  c #A28A74",
"'  c #A88E76",
"]  c #A38E7B",
"[  c #A6917E",
"{  c #A8927D",
"}  c #B89672",
"|  c #B4997D",
" . c #B99C7E",
".. c #C19769",
"X. c #C3996B",
"o. c #C59D71",
"O. c #C7A075",
"+. c #C8A176",
"@. c #C7A47E",
"#. c #C9A47B",
"$. c #AB9784",
"%. c #AD9986",
"&. c #AD9B8A",
"*. c #B29B85",
"=. c #B09A8C",
"-. c #B9A38E",
";. c #AFA091",
":. c #B5A392",
">. c #BBA695",
",. c #BCAC9D",
"<. c #B4A699",
"1. c #BBAFA3",
"2. c #BDB2A7",
"3. c #BFB4AA",
"4. c #CCA983",
"5. c #CFAF8D",
"6. c #CDB295",
"7. c #CFB69C",
"8. c #D3B696",
"9. c #C4B3A5",
"0. c #CDB7A0",
"q. c #C2B5AC",
"w. c #C6B8AC",
"e. c #C9B8A9",
"r. c #D3BCA3",
"t. c #C6BEB6",
"y. c #CBBEB2",
"u. c #D6C3AF",
"i. c #DBC4AB",
"p. c #CDC1B5",
"a. c #CCC4BC",
"s. c #D4C4B5",
"d. c #D9C8B6",
"f. c #D1C6BC",
"g. c #D3C8BE",
"h. c #DBCBBA",
"j. c #E1D0BE",
"k. c #CEC8C2",
"l. c #CBC6C0",
"z. c #D6CCC2",
"x. c #D9CEC3",
"c. c #D2CEC9",
"v. c #DAD0C7",
"b. c #D5D2CE",
"n. c #DDD4CC",
"m. c #D7D5D1",
"M. c #DAD6D2",
"N. c #DCD9D5",
"B. c #DEDDDC",
"V. c #E6D5C4",
"C. c #E8D8C5",
"Z. c #E2D7CC",
"A. c #E2DBD5",
"S. c #E4DEDA",
"D. c #EDE2D6",
"F. c #E7E1DC",
"G. c #F1E7DD",
"H. c #E3E4E4",
"J. c #EBE6E2",
"K. c #EEEAE7",
"L. c #E6E7E8",
"P. c #E7E8EA",
"I. c #E7E8E9",
"U. c #E8E9EB",
"Y. c #E8EAEB",
"T. c #E8EAEC",
"R. c #EAECEE",
"E. c #F4ECE3",
"W. c #F1EEEB",
"Q. c #F5F1EE",
"!. c #FAF7F4",
"~. c #FAF8F6",
"^. c #FFFFFF",
"/. c #F7F5F3",
/* pixels */
"                                                                                                    ",
"                                                                                                    ",
"                                                              . $ 9 f U &.$.] v                     ",
"                                                          1 B 0 I X.X.o.d.T.T.s.0                   ",
"                                                        9 _ X.Z I X.X.X.#.A.T.r.C                   ",
"                                                      = ( X.X.Y C X._ Z R u.L.6.V                   ",
"                                                      B X.X.X.R B ..z $.D  .L.| n *                 ",
"                                                    2 _ X.X.X.R z Y ,.^.J.' N.&.F.`                 ",
"                                                    B X.X.X.X.( k U S.~.9.:.l.,.f.c                 ",
"                                                  = _ X.X.X.X.( g ~ K.W.S :.a.,.M.W - O O u @       ",
"                                                  w X.X.X.X.X._ k C x./.g.$.b.&.:.] ;.$ e w.x       ",
"                                                  C X.X.X.X.X._ k R D ` ! 2.L.m.1.c.M.p # ; %       ",
"                                                $ R X.X.X.X.X._ g 7.A.m.S.I.L.L.T.T.I.k.p O O       ",
"                                                2 _ X.X.X.X.X._ D S.P.P.L.L.L.L.L.L.L.T.c.p v v     ",
"                                                w X.X.X.X.X.X._ ^ H.L.L.L.L.L.L.L.L.L.L.T.1.3.!     ",
"                                                k X.X.X.X.X.X.E ^ H.L.L.L.L.L.L.L.L.L.L.T.3.2.F     ",
"                                                B X.X.X.X.X.X.R G L.P.N.H.P.P.P.P.P.P.P.R.q.$.:     ",
"                                                C X.X.X.X.X.X.E ` H.T.q.<.m.B.H.H.B.B.b.l.W +       ",
"                                                I X.X.X.X.X.X.R ` H.P.M.d e j j F A e , @           ",
"                                                Y X.X.X.X.X.X.Y $.P.P.M.t K L y l.&.                ",
"                                              o V X.X.X.X.X.X.V $.U.U.q.J P K H H.$.                ",
"                                            = 2 N ..X.X.X.X...k <.U.U.q.t K 7 q.m.,                 ",
"                                        = B _ I w E X.X.X.X._ w *.J.U.N.G r &.B.!                   ",
"                                    # k _ X.X.Y 0 I T E E E I 0 Z 6.n.S.A.z.t.W                     ",
"                                  $ I X.X.X.X.) 9 V V V V V V 2 9 h l m F a @                       ",
"                                o I X.X.X.X.X...0 N V V V V N 0 o.Z.M.x.A.$.                        ",
"                              . k X.X.X.X.X.X.X.V 9 V V V V w N +.E.^.^.^.p.                        ",
"                              0 _ X.X._ ..X.X.X...q 9 N N k 2 R o.D.^.^.^.v.                        ",
"                            9 _ X.X.X.R B _ X.X.X...k < < 2 V X.X.D.^.^.^.Z.                        ",
"                            I _ _ X.X.X.I k ..X.X.X.X._ _ ..X.X.o.D.^.^.^.n.                        ",
"                          f _ I _ X.X.X.X.N T X...X.X.X.X.X.X.X.o.G.^.^.^.p.                        ",
"                        = _ R B X.X.X.X.X.E N X.X.X.X.X.X.X...X.#.E.^.^.^.:.                        ",
"                      o I X.I I X.X.X.X.X.X.z _ X.X.X.X.X.Y ( X.4./.^.^.W.c                         ",
"                      k X.X.f R X.X.X.X.X.X.C ) X.X.X.X.( k X.) 8.^.^.^.q.                          ",
"                    0 _ X._ = R X.X.X.X.X.X.C ) X.X.X.X.C R X.U C.^.^.A.>                           ",
"                  2 _ X.#. .O Y X.X.X.X.X._ z _ X.X.X.) B X.) 4.~.^.F.x & & c `                     ",
"                2 _ X.O.C.%.  z X.X.X.X.X.( z X.X.X.X.B I V i *.S.f.d < 5 *.W.Q.D                   ",
"            # f _ ..#.C.n.    = ) X.X.X.X.z ( X.o.o.@.b I Y R I k - 1 5 M W.^.y.u                   ",
"      o 2 k R X.4.i.V.~.>.      0 ..X.X.C 4 } 6.u.Z.z.C _ X.X.X._ i s 9.e.W.^.q.                    ",
"        l 4.4.@.i.~.^.v.      1 Y _ _ R i 4 1 : p x p $ R X.X.5.S.J.w.:.>.A.W.`                     ",
"          W h.Q.^.^.v.c       k X...N = n ~ 5 1         s 7.h.d.^.^.S.p   { {                       ",
"            u $.,.{ u         ~ o.X.V   { >.5 1           x &.f.^.K.S $                             ",
"                              ' 5.X.E & ` s.i 5               ,.W.q.*                               ",
"                                h.o.X.q x n.b h %             u x                                   ",
"                                z.r.j.*.- 9.>.J.g.v                                                 ",
"                                ] f.^.~.-.: z.^.^.g.                                                ",
"                                - n.^.^.J.x S.^.W.z.x                                               ",
"                                  y.~.z.$.> :.n.:.p                                                 ",
"                                    S x +                                                           ",
"                                                                                                    "
};
