/* XPM */
static char *result[] = {
/* columns rows colors chars-per-pixel */
"64 64 206 2 ",
"   c #663C14",
".  c #683D16",
"X  c #6E441D",
"o  c #71451E",
"O  c #73491E",
"+  c #6D4722",
"@  c #6E4A27",
"#  c #744721",
"$  c #754A21",
"%  c #794C25",
"&  c #764E2A",
"*  c #7A4F28",
"=  c #7C5227",
"-  c #76512D",
";  c #7D522B",
":  c #765331",
">  c #7B5632",
",  c #7D5B3C",
"<  c #7E5D40",
"1  c #81542C",
"2  c #83592F",
"3  c #845732",
"4  c #855B33",
"5  c #895E33",
"6  c #885D3A",
"7  c #9A4D37",
"8  c #AC4636",
"9  c #BC493D",
"0  c #8C6235",
"q  c #8E6438",
"w  c #926739",
"e  c #946A3D",
"r  c #95693B",
"t  c #C3473D",
"y  c #815F40",
"u  c #BA5448",
"i  c #846344",
"p  c #8B6644",
"a  c #866649",
"s  c #8C6A4D",
"d  c #956C41",
"f  c #996F42",
"g  c #92694B",
"h  c #9C7244",
"j  c #96714B",
"k  c #9E754A",
"l  c #8B6D51",
"z  c #8F7257",
"x  c #937254",
"c  c #92755B",
"v  c #94795F",
"b  c #A17547",
"n  c #A1764A",
"m  c #A47A4D",
"M  c #A97D4E",
"N  c #A96553",
"B  c #A57D51",
"V  c #A97F51",
"C  c #A27E5A",
"Z  c #957B63",
"A  c #9A7E64",
"S  c #987B64",
"D  c #A87F6E",
"F  c #B57A6C",
"G  c #DC4A49",
"H  c #D54743",
"J  c #C15C52",
"K  c #C74D45",
"L  c #E84E50",
"P  c #E24849",
"I  c #AC8355",
"U  c #AD865B",
"Y  c #AA845B",
"T  c #B18657",
"R  c #B08759",
"E  c #B48A5C",
"W  c #B98E5F",
"Q  c #9E8165",
"!  c #9D836C",
"~  c #9E8670",
"^  c #9F8A76",
"/  c #A58462",
"(  c #A88662",
")  c #AE8B66",
"_  c #AA8A6C",
"`  c #A1886F",
"'  c #B68D61",
"]  c #B98F61",
"[  c #B28F6C",
"{  c #BD9364",
"}  c #BD956B",
"|  c #B7956F",
" . c #A38C76",
".. c #AC8E71",
"X. c #A48E7A",
"o. c #A98F79",
"O. c #A18772",
"+. c #A6927F",
"@. c #AB937C",
"#. c #AD9377",
"$. c #B49675",
"%. c #B99671",
"&. c #BD9973",
"*. c #B2967E",
"=. c #BB9B7A",
"-. c #C09666",
";. c #C19768",
":. c #C49A6B",
">. c #C39867",
",. c #C69E71",
"<. c #C89F72",
"1. c #C8A175",
"2. c #C4A17B",
"3. c #CBA57C",
"4. c #C5A075",
"5. c #BE8F85",
"6. c #AD9782",
"7. c #AF9986",
"8. c #AD9B8B",
"9. c #A69280",
"0. c #B39C86",
"q. c #B29D8A",
"w. c #B79888",
"e. c #B79F92",
"r. c #B4A18E",
"t. c #BAA28A",
"y. c #B4A394",
"u. c #BBA493",
"i. c #B4A698",
"p. c #B7AA9D",
"a. c #BCAB9C",
"s. c #BCAEA2",
"d. c #BEB1A5",
"f. c #BFB3A8",
"g. c #C29288",
"h. c #C9A782",
"j. c #CDA983",
"k. c #CDAD8A",
"l. c #C4A788",
"z. c #D1AF8A",
"x. c #D1B28F",
"c. c #C4AA97",
"v. c #CDB193",
"b. c #C5B29D",
"n. c #CBB39A",
"m. c #D5B694",
"M. c #D6B997",
"N. c #D3B799",
"B. c #D7BB9B",
"V. c #C3B4A5",
"C. c #CDBAA5",
"Z. c #C3B6AA",
"A. c #C3B9AF",
"S. c #CBBBAA",
"D. c #C8B5A2",
"F. c #D1BEAA",
"G. c #D8BEA3",
"H. c #C6BCB1",
"J. c #CABEB3",
"K. c #DAC2A9",
"L. c #DBC1A6",
"P. c #CEC1B4",
"I. c #CAC4BC",
"U. c #D2C2B4",
"Y. c #DAC7B3",
"T. c #DDCBB7",
"R. c #D2C6BB",
"E. c #D4C9BE",
"W. c #D9CAB8",
"Q. c #E0C9AE",
"!. c #E0CAB3",
"~. c #CEC6C1",
"^. c #CFC9C4",
"/. c #D6CBC1",
"(. c #DACEC2",
"). c #D5CEC9",
"_. c #DBD1C6",
"`. c #D6D2CE",
"'. c #DBD2CA",
"]. c #DAD6D4",
"[. c #DBD9D6",
"{. c #DDDCDB",
"}. c #E5D5C3",
"|. c #E3D6C9",
" X c #E4D8CC",
".X c #E3DCD5",
"XX c #ECDFD1",
"oX c #E3DFDB",
"OX c #E4E0DD",
"+X c #EAE4DE",
"@X c #EDE1D4",
"#X c #E4E4E3",
"$X c #EEEAE5",
"%X c #E6E7E8",
"&X c #E7E8E9",
"*X c #E9EAEB",
"=X c #EBE6E2",
"-X c #F3ECE4",
";X c #F1EDE8",
":X c #F5F1EC",
">X c #F8F2ED",
",X c #F6F4F2",
"<X c #F9F7F4",
"1X c #FAF9F7",
"2X c #FEFDFD",
"3X c None",
/* pixels */
"3X3X3X3X3X3X3X3X3X3X3X+ - , < > = O X 3X3X3X3X3X3X3X3X3X3X3X3X3X3X3X3X3X3X3X3X3X3X3X3X3X3X3X3X3X3X3X3X3X3X3X3X3X3X3X3X3X3X3X3X3X",
"3X3X3X3X3X3X3X3X3Xp  .e.p.s.t.) I M h 2 2 0 1 3X3X3X3X3X3X3X3X3X3X3X3X3X3X3X3X3X3X3X3X3X3X3X3X3X3X3X3X3X3X3X3X3X3X3X3X3X3X3X3X3X",
"3X3X3X3X3X3X3X3X3X/ Z.`.[.'.n.4.:.} E f h M k q 3X3X3X3X3X3X3X3X3X3X3X3X3X3X3X3X3X3X3X3X3X3X3X3X3X3X3X3X3X3X3X3X3X3X3X3X3X3X3X3X",
"3X3X3X3X3X3X3X3Xq %.(.*X#XW.3.>.:.:.>.m I >.>.Y q 3X3X3X3X3X3X3X3X3X3X3X3X3X3X3X3X3X3X3X3X3X3X3X3X3X3X3X3X3X3X3X3X3X3X3X3X3X3X3X",
"3X3X3X3X3X3X3X3Xe %.Y.=X.Xv.>.{ >.>.} n I :.:.>.I q 3X3X3X3X3X3X3X3X3X3X3X3X3X3X3X3X3X3X3X3X3X3X3X3X3X3X3X3X3X3X3X3X3X3X3X3X3X3X",
"3X3X3X3X3X3X3X3X0 Y K.OX_.| B k Y { { m I :.:.:.{ m ; 3X3X3X3X3X3X3X3X3X3X3X3X3X3X3X3X3X3X3X3X3X3X3X3X3X3X3X3X3X3X3X3X3X3X3X3X3X",
"3X3X3X3X3X3X3X3Xx / D.'.P._ u.u.$.Y ] m T :.:.:.:.W e 3X3X3X3X3X3X3X3X3X3X3X3X3X3X3X3X3X3X3X3X3X3X3X3X3X3X3X3X3X3X3X3X3X3X3X3X3X",
"3X3X3X3X3X3X3Xv 0.r.V.P.V.r..X$XS.( E n R :.:.:.:.{ R 1 3X3X3X3X3X3X3X3X3X3X3X3X3X3X3X3X3X3X3X3X3X3X3X3X3X3X3X3X3X3X3X3X3X3X3X3X",
"3X3X3X3X3X3X3X~ V.E.H.f.f.Z.OX1X@X0.I k T :.:.:.:.:.] e 3X3X3X3X3X3X3X3X3X3X3X3X3X3X3X3X3X3X3X3X3X3X3X3X3X3X3X3X3X3X3X3X3X3X3X3X",
"3X3X3X3X3X3X3Xl @.E.H.f.a.r.u.OX$Xb.Y k T :.:.:.:.:.} B 3X3X3X3X3X3X3X3X3X3X3X3X3X3X3X3X3X3X3X3X3X3X3X3X3X3X3X3X3X3X3X3X3X3X3X3X",
"3X3X& @ X X : v a._.P.d.a.a.s.+X$Xb.I k R ,.:.:.:.:.>.E q 3X3X3X3X3X3X3X3X3X3X3X3X3X3X3X3X3X3X3X3X3X3X3X3X3X3X3X3X3X3X3X3X3X3X3X",
"3Xs Q z O - c 9.y.a.f.H.f.r.V._.R.@.I k R :.:.:.:.:.:.{ f 3X3X3X3X3X3X3X3X3X3X3X3X3X3X3X3X3X3X3X3X3X3X3X3X3X3X3X3X3X3X3X3X3X3X3X",
"  x @.A - < y.f.8.8.I.`.I.r.p.s.q._ U k R :.:.:.:.:.:.>.m 0 3X3X3X3X3X3X3X3X3X3X3X3X3X3X3X3X3X3X3X3X3X3X3X3X3X3X3X3X3X3X3X3X3X3X",
". - > ; & ! ~.#X`.`.{.&XOX^.d.p.V.n.&.m R :.:.:.:.:.:.:.I e 3X3X3X3X3X3X3X3X3X3X3X3X3X3X3X3X3X3X3X3X3X3X3X3X3X3X3X3X3X3X3X3X3X3X",
"  X # & v I.OX*X%X%X%X&X%X%XOXOX#X[.C.( R :.:.:.:.:.:.:.{ h 3X3X3X3X3X3X3X3X3X3X3X3X3X3X3X3X3X3X3X3X3X3X3X3X3X3X3X3X3X3X3X3X3X3X",
"i : > Z H.OX*X%X*X*X&X&X%X*X*X*X*X&X)...E :.:.:.:.:.:.:.{ n 3X3X3X3X3X3X3X3X3X3X3X3X3X3X3X3X3X3X3X3X3X3X3X3X3X3X3X3X3X3X3X3X3X3X",
"^ Z ! s.#X*X%X%X&X&X&X&X&X&X&X&X&X%X].*.F :.:.:.:.:.:.:.:.M 3 3X3X3X3X3X3X3X3X3X3X3X3X3X3X3X3X3X3X3X3X3X3X3X3X3X3X3X3X3X3X3X3X3X",
"y.i.f.).%X&X&X&X&X&X&X&X&X&X%X%X*X%X].6.I >.:.:.:.:.:.:.>.V 0 3X3X3X3X3X3X3X3X3X3X3X3X3X3X3X3X3X3X3X3X3X3X3X3X3X3X3X3X3X3X3X3X3X",
"8.y.f.`.%X*X&X&X%X%X&X%X&X*X%X#X%X&X{.9.U :.:.:.:.:.:.:.:.I e 3X3X3X3X3X3X3X3X3X3X3X3X3X3X3X3X3X3X3X3X3X3X3X3X3X3X3X3X3X3X3X3X3X",
"Z +.f.`.*X*X*X*X*X*X*X*X*X*X[.`.{.&X{.9.U >.:.:.:.:.:.:.:.R d 3X3X3X3X3X3X3X3X3X3X3X3X3X3X3X3X3X3X3X3X3X3X3X3X3X3X3X3X3X3X3X3X3X",
", l ^ A.[.{.#X#X%X{.#X{.`.I.s.A.[.*XOX@.U -.:.:.:.:.:.:.:.R h 3X3X3X3X3X3X3X3X3X3X3X3X3X3X3X3X3X3X3X3X3X3X3X3X3X3X3X3X3X3X3X3X3X",
"3X+ a 9.i.s.s.f.f.f.p.e.6.D c f.oX*X#X7.Y { :.:.:.:.:.:.:.E h 3X3X3X3X3X3X3X3X3X3X3X3X3X3X3X3X3X3X3X3X3X3X3X3X3X3X3X3X3X3X3X3X3X",
"3X3X3X3X@ : : < Z S g 7 8 8 N H.&X&X#Xq.Y W :.:.:.:.:.:.<.W h X 3X3X3X3X3X3X3X3X3X3X3X3X3X3X3X3X3X3X3X3X3X3X3X3X3X3X3X3X3X3X3X3X",
"3X3X3X3X3X3X3XZ p.I.F u G G u g.{.*X%Xi./ E :.:.:.:.:.:.:.E k r h 0 $ 3X3X3X3X3X3X3X3X3X3X3X3X3X3X3X3X3X3X3X3X3X3X3X3X3X3X3X3X3X",
"3X3X3X3X3X3X3X3Xs.{.w.J P L K g.`.*X*Xd./ T >.:.:.:.:.:.:.I b I E R n r = 3X3X3X3X3X3X3X3X3X3X3X3X3X3X3X3X3X3X3X3X3X3X3X3X3X3X3X",
"3X3X3X3X3X3X3X3X9.`.A.F t H u 5.`.*X&Xf./ m >.:.:.:.:.:.-.M h I :.:.{ R h 0 3X3X3X3X3X3X3X3X3X3X3X3X3X3X3X3X3X3X3X3X3X3X3X3X3X3X",
"3X3X3X3X3X3X3X3X3Xf.^.g.N u N c.{.&X#Xb.Y b W >.>.>.>.{ W b h T :.:.:.:.{ B q 3X3X3X3X3X3X3X3X3X3X3X3X3X3X3X3X3X3X3X3X3X3X3X3X3X",
"3X3X3X3X3X3X3X3X3XZ A.^.s.w.s.].%XOXY.=.b e T W { { W R I e h R :.:.:.:.:.>.R e 3X3X3X3X3X3X3X3X3X3X3X3X3X3X3X3X3X3X3X3X3X3X3X3X",
"3X3X3X3X3X3X3X3X3X3XZ X.i.s.H.H.V.t.) k 0 w M I I M M I M r e { :.:.:.:.:.:.} T q 3X3X3X3X3X3X3X3X3X3X3X3X3X3X3X3X3X3X3X3X3X3X3X",
"3X3X3X3X3X3X3X3X3X3X3X< c X.8.7.@.#...B r w m M M M M M M r k -.:.:.:.:.:.:.:.{ I ; 3X3X3X3X3X3X3X3X3X3X3X3X3X3X3X3X3X3X3X3X3X3X",
"3X3X3X3X3X3X3X3X3X3X3X3X: X.a.V.V.J.P.2.m e k M M M M M b e M :.:.:.>.:.:.:.:.:.W f 0 3X3X3X3X3X3X3X3X3X3X3X3X3X3X3X3X3X3X3X3X3X",
"3X3X3X3X3X3X3X3X3X3X3X3XZ J.,X2X2X2X-Xm.E h e M M M M m w h R :.:.:.{ { >.>.:.>.W R I e 3X3X3X3X3X3X3X3X3X3X3X3X3X3X3X3X3X3X3X3X",
"3X3X3X3X3X3X3X3X3X3X3X3XZ R.<X2X2X2X-Xm.-.B q r m m h w q I ;.:.:.} R T :.:.:.>.] I E R d 3X3X3X3X3X3X3X3X3X3X3X3X3X3X3X3X3X3X3X",
"3X3X3X3X3X3X3X3X3X3X3X3XZ R.<X2X2X2X-Xm.:.E h q 5 5 5 w V { :.:.:.R Y W :.:.:.:.} B I ] E f = 3X3X3X3X3X3X3X3X3X3X3X3X3X3X3X3X3X",
"3X3X3X3X3X3X3X3X3X3X3X3X3XJ.,X2X2X2X:XM.,.-.E n f f n I { :.:.:.{ I I { :.:.:.:.:.E B E :.E h 4 3X3X3X3X3X3X3X3X3X3X3X3X3X3X3X3X",
"3X3X3X3X3X3X3X3X3X3X3X3X3XV.,X2X2X2X>XB.,.:.:.-.-.-.;.,.:.:.:.:.{ B Y :.:.:.:.:.>.{ M I -.:.{ k 0 3X3X3X3X3X3X3X3X3X3X3X3X3X3X3X",
"3X3X3X3X3X3X3X3X3X3X3X3X3Xq.$X2X2X2X1XL.1.:.:.:.:.:.:.:.:.:.:.>.R I { :.:.:.:.:.:.:.k h U :.:.>.R h 1 3X3X3X3X3X3X3X3X3X3X3X3X3X",
"3X3X3X3X3X3X3X3X3X3X3X3X3XA .X1X2X2X2X!.3.>.:.:.:.:.:.:.:.:.,.>.I I { :.:.:.:.:.:.:.B q d { :.:.{ { I k q = O X $ % O 3X3X3X3X3X",
"3X3X3X3X3X3X3X3X3X3X3X3X3X, Z.$X2X2X2XT.h.] :.>.:.:.:.:.:.:.:.;.I I { :.:.:.:.:.:.>.I 0 4 ) j.3.:.:.>.E I B n k n f ; 3X3X3X3X3X",
"3X3X3X3X3X3X3X3X3X3X3X3X3X# A /.2X2X2X@Xk.E -.-.-.:.:.:.:.:.:.:.Y R { :.:.:.:.:.:.>.M 3X3XQ C.K.M.3.1.3.1.>.{ ,.&./ 3X3X3X3X3X3X",
"3X3X3X3X3X3X3X3X3X3X3X3X3X# 3 0.oX2X2X=Xv.E -.R { >.:.:.:.:.:.:.T I E :.:.:.:.:.:.;.n 3X3X3XV.|.XX!.N.G.m.j.j.m.t.Q 3X3X3X3X3X3X",
"3X3X3X3X3X3X3X3X3X3X3X3X3X% 1 p q.+X2X+Xc.E -.V ' >.:.:.:.:.:.>.W I R :.:.:.:.:.:.' r 3X3X3Xc J.+X>X-X-XXX}.}.U.@.3X3X3X3X3X3X3X",
"3X3X3X3X3X3X3X3X3X3X3X3X3X* 4 1 i 6.'./.l.' { I } ,.:.;.>.>.>.:.{ I I { :.:.:.:.{ B k j 3X3X3XO.D.=X2X2X2X-X(.7.3X3X3X3X3X3X3X3X",
"3X3X3X3X3X3X3X3X3X3X3X3X3X% 3 1 $ , X.#.[ { } =.G.Q.M.z.j.3.1.1.,.E m m -.:.:.:.] I E %.#.3X3X3X! a.E.'.(.J.r.3X3X3X3X3X3X3X3X3X",
"3X3X3X3X3X3X3X3X3X3X3X3X. # 1 * O 3Xo > k { ] t._.+X}.!.K.N.k.h.4.) h 0 m E ;.;.-.{ :.j.v.0.3X3X3X3XA 9.X.v 3X3X3X3X3X3X3X3X3X3X",
"3X3X3X3X3X3X3X3X3X3Xo % 1 1 3 * = 4 q 5 f R E Q r.J.E.E.R.U.V.t._ j 1 % 1 d I ] ;.;.>.1.N.U.S 3X3X3X3X3X3X3X3X3X3X3X3X3X3X3X3X3X",
"3X3X3X3X3X3X3X3X3X# 1 3 6 g x j B E ] E E U V 4 3X3Xz c c x 3X3X3X3X$ * 4 j / / B E -.:.2.c.r. .3X3X3X3X3X3X3X3X3X3X3X3X3X3X3X3X",
"3X3X3X3X3X3X3X3Xz y 6 3 j V.R.F.l.,.:.:.;.' m 3X3X3X3X3X3X3X3X3X3X3X3X$ 6 6.J.R.t.v E -.1.C..XS.6.3X3X3X3X3X3X3X3X3X3X3X3X3X3X3X",
"3X3X3X3X3X3X .a.Z.c._ p c R.,X>XT.x.1.1.:.E w 3X3X3X3X3X3X3X3X3X3X3X3X3X; q.+X1XE.x k E k.|.1X.Xb.3X3X3X3X3X3X3X3X3X3X3X3X3X3X3X",
"3X3X3X3X3X3Xa..X2X<XR.@.v e.=X2X-XY.x.j.&.m O 3X3X3X3X3X3X3X3X3X3X3X3X3Xo Q _.1X'.x 4 M x.-X2XoXZ.3X3X3X3X3X3X3X3X3X3X3X3X3X3X3X",
"3X3X3X3X3X3X@.E.,X2X+XJ.q. .+X2X-X_.|.F.#.p 3X3X3X3X3X3X3X3X3X3X3X3X3X3X3X3XV.+X+X .> 0 %..X2X.Xs.3X3X3X3X3X3X3X3X3X3X3X3X3X3X3X",
"3X3X3X3X3X3Xa q.$X1XoXa.v x R.,XOXy.7.O.3X3X3X3X3X3X3X3X3X3X3X3X3X3X3X3X3X3X3Xa.Z.! 3X3Xx D.:XU.` 3X3X3X3X3X3X3X3X3X3X3X3X3X3X3X",
"3X3X3X3X3X3X3XS P.+X/.6.3X3X7.J.V.Z 3X3X3X3X3X3X3X3X3X3X3X3X3X3X3X3X3X3X3X3X3X3X~ l 3X3X3X7..XZ.A 3X3X3X3X3X3X3X3X3X3X3X3X3X3X3X",
"3X3X3X3X3X3X3X3XX.V.y.3X3X3X3X! ! 3X3X3X3X3X3X3X3X3X3X3X3X3X3X3X3X3X3X3X3X3X3X3X3X3X3X3X3X3XZ.r.A 3X3X3X3X3X3X3X3X3X3X3X3X3X3X3X",
"3X3X3X3X3X3X3X3X3X3X3X3X3X3X3X3X3X3X3X3X3X3X3X3X3X3X3X3X3X3X3X3X3X3X3X3X3X3X3X3X3X3X3X3X3X3X3Xa 3X3X3X3X3X3X3X3X3X3X3X3X3X3X3X3X",
"3X3X3X3X3X3X3X3X3X3X3X3X3X3X3X3X3X3X3X3X3X3X3X3X3X3X3X3X3X3X3X3X3X3X3X3X3X3X3X3X3X3X3X3X3X3X3X3X3X3X3X3X3X3X3X3X3X3X3X3X3X3X3X3X",
"3X3X3X3X3X3X3X3X3X3X3X3X3X3X3X3X3X3X3X3X3X3X3X3X3X3X3X3X3X3X3X3X3X3X3X3X3X3X3X3X3X3X3X3X3X3X3X3X3X3X3X3X3X3X3X3X3X3X3X3X3X3X3X3X",
"3X3X3X3X3X3X3X3X3X3X3X3X3X3X3X3X3X3X3X3X3X3X3X3X3X3X3X3X3X3X3X3X3X3X3X3X3X3X3X3X3X3X3X3X3X3X3X3X3X3X3X3X3X3X3X3X3X3X3X3X3X3X3X3X",
"3X3X3X3X3X3X3X3X3X3X3X3X3X3X3X3X3X3X3X3X3X3X3X3X3X3X3X3X3X3X3X3X3X3X3X3X3X3X3X3X3X3X3X3X3X3X3X3X3X3X3X3X3X3X3X3X3X3X3X3X3X3X3X3X",
"3X3X3X3X3X3X3X3X3X3X3X3X3X3X3X3X3X3X3X3X3X3X3X3X3X3X3X3X3X3X3X3X3X3X3X3X3X3X3X3X3X3X3X3X3X3X3X3X3X3X3X3X3X3X3X3X3X3X3X3X3X3X3X3X",
"3X3X3X3X3X3X3X3X3X3X3X3X3X3X3X3X3X3X3X3X3X3X3X3X3X3X3X3X3X3X3X3X3X3X3X3X3X3X3X3X3X3X3X3X3X3X3X3X3X3X3X3X3X3X3X3X3X3X3X3X3X3X3X3X",
"3X3X3X3X3X3X3X3X3X3X3X3X3X3X3X3X3X3X3X3X3X3X3X3X3X3X3X3X3X3X3X3X3X3X3X3X3X3X3X3X3X3X3X3X3X3X3X3X3X3X3X3X3X3X3X3X3X3X3X3X3X3X3X3X",
"3X3X3X3X3X3X3X3X3X3X3X3X3X3X3X3X3X3X3X3X3X3X3X3X3X3X3X3X3X3X3X3X3X3X3X3X3X3X3X3X3X3X3X3X3X3X3X3X3X3X3X3X3X3X3X3X3X3X3X3X3X3X3X3X",
"3X3X3X3X3X3X3X3X3X3X3X3X3X3X3X3X3X3X3X3X3X3X3X3X3X3X3X3X3X3X3X3X3X3X3X3X3X3X3X3X3X3X3X3X3X3X3X3X3X3X3X3X3X3X3X3X3X3X3X3X3X3X3X3X"
};
