/* XPM */
static char *c344019f5ac5410f807bd22b89466c0dUQLk5eCjcAnfoMvH[] = {
/* columns rows colors chars-per-pixel */
"48 48 11 1 ",
"  c None",
". c black",
"X c #1F1C14",
"o c gray12",
"O c #302B1F",
"+ c #26311C",
"@ c gray17",
"# c gray24",
"$ c #324620",
"% c #3F5728",
"& c #47622D",
/* pixels */
"    &&&&&$$$$$&&&&&&&&&&&$$$$$&&&&&&&&&&&&&&    ",
"  &&%%$%$$$$$$$$$%%%%$%$$$$$$$$$$%%%%$%$$$$%&&  ",
" &%$$$$$$$$$$$$$$$$$$$$$$$$$$$$$$$$$$$$$$$$$$%& ",
" &%$$$$++$$$$$$$$$..+$$$.$$$$$$$$$..+$$$.++$$%& ",
"&%$$$$+...$$$$+++.XX.++.X.$$$$+++.XX.++.X..+$$%&",
"&%$$$+.XXX.+++...XOOX..XOX.+++...XOOX..XOXX.$$%&",
"&%$$$.XXOOX...XXXOOOOXXXOOX...XXXOOOOXXXOOO.$$%&",
"&$$$$.XOOOOXXXXOOOOOOOOOOOOXXXXOOOOOOOOOOOX.$$$&",
"&$$$$.XOOOOOOOOOOOOOOOOOOOOOOOOOOOOOOOOOOOX.$$$&",
"&$$$$.XOOO#@OOOOOOO##@OOOO#@OOOOOOO##@OOOOX.$$$$",
"&$$$$.XOOOOOOOOOOO#@@@@OOOOOOOOOOO#@@@@OOO.$$$$$",
"$$$$$$.XOOOOOOOOOOO@oooOOOOOOOOOOOO@oooOOX.$+$$$",
"$$$++$.XOOOOOOO#OOOOOOOOOOOOOOO#OOOOOOOOOX.+.+$$",
"$$$..+.XOO####@@@OOOOOOOOO####@@@OOOOOOOOOX.X.$&",
"&$$.X.XOOO@@@@@@o@OO#OOOOO@@@@@@o@OO#OOOOOOXO.$&",
"&$$.OXOOOOOO@@@oOOOOOoOOOOOO@@@oOOOOOoOOOOOOO.$&",
"&$$.XOOOOOOO@ooOOOOOOOOOOOOO@ooOOOOOOOOOOOOX.$%&",
"&$$.XOOOOOOOOOOOO@OOOOOOOOOOOOOOO@OOOOOOOOX.$$%&",
"&%$$.XOOOOOOOOO#@@OOOOOOOOOOOOO#@@OOOOOOOOX.$$%&",
"&%$$$.XOOOOOOO#@ooOOOOOOOOOOOO#@ooOOOOOOOX.$$$%&",
"&%$$$.XOOOOOOO@OOOOO###OOOOOOO@OOOOO###OOX.$$$%&",
"$$$$+.X@@OOOOOOOOOO##@@@@OOOOOOOOOO##@@@@X.$$$$&",
"&%$$+.X@@@OOOOOOOOO#@@@@@@OOOOOOOOO#@@@@@X.$+$$&",
"&%$++.X@@@oOOOOOOOO@@@@@@@oOOOOOOOO@@@@@@X.+.+$&",
"&$$..XooooOOOOOOOOOO@@ooooOOOOOOOOOO@@ooooX.X.$$",
"&$$.XOOOOOOOOOOOOOOOOOOOOOOOOOOOOOOOOOOOOOOXO.$$",
"$$$.XOOOOOOOO###@OOOOOOOOOOOO###@OOOOOOOOOOO.$$$",
"$$$.X#@OOOOO#@@@@@OOO#@OOOOO#@@@@@OOO#@OOOX.$$$&",
"&$$..X@@OOOOO@@@@@OOOO@@OOOOO@@@@@OOOO@@OX.+$$$&",
"&%$$.XOOOOOOOOoooOOOOOoOOOOOOOoooOOOOOoOOOX.+$%&",
"&%$+.XOOOOO##OOOOOOOOOOOOOO##OOOOOOOOOOOOOX.+$%&",
"&%$.XOOOOO#@@@OOOOOOOOOOOO#@@@OOOOOOOOOOOOOX.+%&",
"&$.OOOOOOOOO@ooOOOOOOOOOOOOO@ooOOOOOOOOOOOOO.$$&",
"&$.XXOOOOOOOOOOOO@OOOOOOOOOOOOOOO@OOOOOOOOXX.$$&",
"&$...XOOOOOOOOO#@@OOOOOOOOOOOOO#@@OOOOOOOX...$$$",
"$$$++.XOOOOOOO#@ooOOOOOOOOOOOO#@ooOOOOOOX.++$$$$",
"$$$$+.XOOOOOOO@OOOOO###OOOOOOO@OOOOO###OX.+$$$$$",
"$$$$+.X@@OOOOOOOOOO##@@@@OOOOOOOOOO##@@@X.+$$$$&",
"$$$+.X@@@@OOOOOOOOO#@@@@@@OOOOOOOOO#@@@@@X.+$$$&",
"&$$.X@@@@@oOOOOOOOO@@@@@@@oOOOOOOOO@@@@@@@X.$$$&",
"&$$.XoooooOOOOOOOXXXX@ooooOOOOOOOXXXX@ooooX.$$$&",
"&%$$.XOOOXXOOOOXXX...XOOXXXOOOOXXX...XOOOX.$$$%&",
"&%$$.XXOX..XO#X...+++.XOX..XO#X...+++.XXX.+$$$%&",
"&%$$+..X.++.XX.+++$$$$.X.++.XX.+++$$$$...+$$$$%&",
" &%$$++.$$$+..$$$$$$$$$.$$$+..$$$$$$$$$++$$$$%& ",
" &%$$$$$$$$$$$$$$$$$$$$$$$$$$$$$$$$$$$$$$$$$$%& ",
"  &&%$$$$%$%%%%$$$$$$$$$$%$%%%%$$$$$$$$$%$%%&&  ",
"    &&&&&&&&&&&&&&$$$$$&&&&&&&&&&&$$$$$&&&&&    "
};
